Coordinates
nRows=245
nColumns=2
inDegrees=yes
endheader
time	ankle_angle_r	
2.72782	  9.384155	
2.76109	  9.344256	
2.79435	  9.356673	
2.82762	  9.402546	
2.86089	  9.356867	
2.89415	  9.356963	
2.92742	  9.360482	
2.96069	  9.338379	
2.99395	  9.350022	
3.02722	  9.372608	
3.06048	  9.361279	
3.09375	  9.353638	
3.12702	  9.399414	
3.16028	  9.327219	
3.19355	  9.368896	
3.22681	  9.395122	
3.26008	  9.364508	
3.29335	  9.399414	
3.32661	  9.384155	
3.35988	  9.399414	
3.39315	  9.393706	
3.42641	  9.460449	
3.45968	  9.389124	
3.49294	  9.460449	
3.52621	  9.424769	
3.55948	  9.419414	
3.59274	  9.465805	
3.62601	  9.490967	
3.65927	  9.449351	
3.69254	  9.410706	
3.72581	  9.426158	
3.75907	  9.378316	
3.79234	  9.368896	
3.8256	  9.454416	
3.85887	  9.426931	
3.89214	  9.475708	
3.9254	  9.482031	
3.95867	  9.423512	
3.99194	  9.432158	
4.0252	  9.460449	
4.05847	  9.445190	
4.09173	  9.451997	
4.125	  9.484064	
4.15827	  9.461709	
4.19153	  9.415739	
4.2248	  9.466769	
4.25806	  9.453159	
4.29133	  9.414673	
4.3246	  9.468518	
4.35786	  9.437611	
4.39113	  9.391738	
4.4244	  9.444903	
4.45766	  9.391544	
4.49093	  9.352963	
4.52419	  9.376092	
4.55746	  9.399414	
4.59073	  9.367642	
4.62399	  9.399414	
4.65726	  9.323120	
4.69052	  9.395746	
4.72379	  9.362281	
4.75706	  9.338379	
4.79032	  9.372905	
4.82359	  9.366289	
4.85685	  9.338379	
4.89012	  9.396420	
4.92339	  9.384155	
4.95665	  9.353638	
4.98992	  9.374739	
5.02319	  9.365129	
5.05645	  9.363248	
5.08972	  9.410519	
5.12298	  9.384155	
5.15625	  9.358996	
5.18952	  9.378893	
5.22278	  9.389320	
5.25605	  9.353638	
5.28931	  9.404729	
5.32258	  9.399414	
5.35585	  9.348859	
5.38911	  9.404096	
5.42238	  9.393326	
5.45565	  9.368896	
5.48891	  9.384155	
5.52218	  9.399414	
5.55544	  9.364698	
5.58871	  9.372998	
5.62198	  9.399414	
5.65524	  9.353638	
5.68851	  9.399414	
5.72177	  9.399414	
5.75504	  9.360874	
5.78831	  9.377111	
5.82157	  9.399414	
5.85484	  9.368896	
5.8881	  9.384155	
5.92137	  9.451461	
5.95464	  9.405558	
5.9879	  9.417614	
6.02117	  9.427087	
6.05444	  9.399414	
6.0877	  9.381504	
6.12097	  9.485857	
6.15423	  9.386614	
6.1875	  9.429932	
6.22077	  9.473443	
6.25403	  9.414673	
6.2873	  9.488895	
6.32056	  9.471759	
6.35383	  9.460449	
6.3871	  9.475708	
6.42036	  9.514746	
6.45363	  9.443603	
6.4869	  9.472726	
6.52016	  9.459055	
6.55343	  9.503630	
6.58669	  9.459248	
6.61996	  9.413568	
6.65323	  9.428924	
6.68649	  9.504403	
6.71976	  9.369711	
6.75302	  9.398696	
6.78629	  9.415294	
6.81956	  9.354687	
6.85282	  9.352782	
6.88609	  9.398752	
6.91935	  9.323120	
6.95262	  9.353500	
6.98589	  9.307984	
7.01915	  9.338379	
7.05242	  9.323273	
7.08569	  9.368896	
7.11895	  9.308553	
7.15222	  9.324448	
7.18548	  9.353099	
7.21875	  9.322484	
7.25202	  9.338379	
7.28528	  9.368896	
7.31855	  9.324972	
7.35181	  9.308884	
7.38508	  9.381917	
7.41835	  9.335947	
7.45161	  9.323120	
7.48488	  9.370306	
7.51815	  9.323120	
7.55141	  9.336777	
7.58468	  9.355337	
7.61794	  9.351842	
7.65121	  9.323120	
7.68448	  9.416662	
7.71774	  9.351552	
7.75101	  9.351455	
7.78427	  9.416952	
7.81754	  9.353638	
7.85081	  9.455503	
7.88407	  9.488398	
7.91734	  9.392154	
7.9506	  9.378630	
7.98387	  9.490967	
8.01714	  9.454536	
8.0504	  9.429932	
8.08367	  9.460449	
8.11694	  9.414673	
8.1502	  9.453763	
8.18347	  9.468828	
8.21673	  9.368896	
8.25	  9.392148	
8.28327	  9.422472	
8.31653	  9.387935	
8.3498	  9.406827	
8.38306	  9.391375	
8.41633	  9.384155	
8.4496	  9.395201	
8.48286	  9.362257	
8.51613	  9.384155	
8.5494	  9.390408	
8.58266	  9.374955	
8.61593	  9.379458	
8.64919	  9.384155	
8.68246	  9.399414	
8.71573	  9.353936	
8.74899	  9.379072	
8.78226	  9.384155	
8.81552	  9.363620	
8.84879	  9.399414	
8.88206	  9.384155	
8.91532	  9.363330	
8.94859	  9.378491	
8.98185	  9.391632	
9.01512	  9.353638	
9.04839	  9.390109	
9.08165	  9.384155	
9.11492	  9.362750	
9.14819	  9.414673	
9.18145	  9.436272	
9.21472	  9.421110	
9.24798	  9.427740	
9.28125	  9.399414	
9.31452	  9.384155	
9.34778	  9.429932	
9.38105	  9.431350	
9.41431	  9.452208	
9.44758	  9.445190	
9.48085	  9.513436	
9.51411	  9.475708	
9.54738	  9.459998	
9.58065	  9.529243	
9.61391	  9.422270	
9.64718	  9.460449	
9.68044	  9.467917	
9.71371	  9.429932	
9.74698	  9.452465	
9.78024	  9.536743	
9.81351	  9.529662	
9.84677	  9.558987	
9.88004	  9.582520	
9.91331	  9.528275	
9.94657	  9.582520	
9.97984	  9.567261	
10.0131	  9.543244	
10.0464	  9.530338	
10.0796	  9.543051	
10.1129	  9.460449	
10.1462	  9.533658	
10.1794	  9.500208	
10.2127	  9.494383	
10.246	  9.570870	
10.2792	  9.445190	
10.3125	  9.393783	
10.3458	  9.364707	
10.379	  9.384155	
10.4123	  9.358979	
10.4456	  9.384155	
10.4788	  9.348490	
10.5121	  9.363846	
10.5454	  9.379201	
10.5786	  9.353638	
10.6119	  9.343140	
10.6452	  9.368896	
10.6784	  9.338379	
10.7117	  9.342850	
10.745	  9.373271	
10.7782	  9.327397	
10.8115	  9.323120	
10.8448	  9.368896	
